# xmcd CD database file
#
# Track frame offsets:
#	150
#	25198
#	49073
#	71186
#	93122
#	113856
#	125401
#	141930
#	167791
#	183476
#	206954
#	222112
#	244848
#	276176
#
# Disc length: 3915 seconds
#
# Revision: 0
# Processed by: cddbd v1.5.2PL0 Copyright (c) Steve Scherf et al.
# Submitted via: CDex 1.79
#
DISCID=d60f490e
DTITLE=Thierry Maillard Trio - Beyond the Ocean
DYEAR=2012
DGENRE=Jazz
TTITLE0=Keops
TTITLE1=Etretat le Donjon
TTITLE2=Beyond the Ocean
TTITLE3=Budapest
TTITLE4=Le Jardin des Reves
TTITLE5=Icon
TTITLE6=La Cote sauvage
TTITLE7=La Ligne transatlantique
TTITLE8=Ireland Song
TTITLE9=The Secrets
TTITLE10=Le petit Hotel du grand Large
TTITLE11=La Vallee des Reines
TTITLE12=Anyway
TTITLE13=Without You
EXTD=YEAR: 2012
EXTT0=
EXTT1=
EXTT2=
EXTT3=
EXTT4=
EXTT5=
EXTT6=
EXTT7=
EXTT8=
EXTT9=
EXTT10=
EXTT11=
EXTT12=
EXTT13=
PLAYORDER=
